<mxfile host="app.diagrams.net" agent="Mozilla/5.0 (Windows NT 10.0; Win64; x64) AppleWebKit/537.36 (KHTML, like Gecko) Chrome/138.0.0.0 Safari/537.36 Edg/138.0.0.0" version="27.2.0">
  <diagram name="Page-1" id="DtPXHkyASpwX7tVZuU44">
    <mxGraphModel dx="3190" dy="2549" grid="1" gridSize="10" guides="1" tooltips="1" connect="1" arrows="1" fold="1" page="1" pageScale="1" pageWidth="827" pageHeight="1169" math="0" shadow="0">
      <root>
        <mxCell id="0" />
        <mxCell id="1" parent="0" />
        <mxCell id="JPcvBMSAecQYECdPvhLH-1" value="" style="rounded=0;whiteSpace=wrap;html=1;fillColor=#d0cee2;strokeColor=#56517e;movable=0;resizable=0;rotatable=0;deletable=0;editable=0;locked=1;connectable=0;" vertex="1" parent="1">
          <mxGeometry x="-270" y="-330" width="910" height="1470" as="geometry" />
        </mxCell>
        <mxCell id="JPcvBMSAecQYECdPvhLH-124" style="edgeStyle=orthogonalEdgeStyle;rounded=0;orthogonalLoop=1;jettySize=auto;html=1;exitX=1;exitY=0.25;exitDx=0;exitDy=0;entryX=0;entryY=0.5;entryDx=0;entryDy=0;fontColor=#FFE6CC;fillColor=#f8cecc;strokeColor=#b85450;" edge="1" parent="1" source="JPcvBMSAecQYECdPvhLH-3" target="JPcvBMSAecQYECdPvhLH-26">
          <mxGeometry relative="1" as="geometry" />
        </mxCell>
        <mxCell id="JPcvBMSAecQYECdPvhLH-125" style="edgeStyle=orthogonalEdgeStyle;rounded=0;orthogonalLoop=1;jettySize=auto;html=1;exitX=1;exitY=0.75;exitDx=0;exitDy=0;entryX=0;entryY=0.5;entryDx=0;entryDy=0;fontColor=#FFE6CC;fillColor=#f8cecc;strokeColor=#b85450;" edge="1" parent="1" source="JPcvBMSAecQYECdPvhLH-3" target="JPcvBMSAecQYECdPvhLH-27">
          <mxGeometry relative="1" as="geometry" />
        </mxCell>
        <mxCell id="JPcvBMSAecQYECdPvhLH-3" value="&lt;b&gt;compute_returns(prices_df, weights, T)&lt;/b&gt;" style="rounded=0;whiteSpace=wrap;html=1;" vertex="1" parent="1">
          <mxGeometry x="20" y="190" width="230" height="30" as="geometry" />
        </mxCell>
        <mxCell id="JPcvBMSAecQYECdPvhLH-51" style="edgeStyle=orthogonalEdgeStyle;rounded=0;orthogonalLoop=1;jettySize=auto;html=1;entryX=0;entryY=0.5;entryDx=0;entryDy=0;fontColor=#FFE6CC;fillColor=#f8cecc;strokeColor=#b85450;" edge="1" parent="1" source="JPcvBMSAecQYECdPvhLH-4" target="JPcvBMSAecQYECdPvhLH-28">
          <mxGeometry relative="1" as="geometry" />
        </mxCell>
        <mxCell id="JPcvBMSAecQYECdPvhLH-4" value="&lt;b&gt;compute_VL_exante()&lt;/b&gt;" style="rounded=0;whiteSpace=wrap;html=1;" vertex="1" parent="1">
          <mxGeometry x="20" y="270" width="230" height="30" as="geometry" />
        </mxCell>
        <mxCell id="JPcvBMSAecQYECdPvhLH-25" style="edgeStyle=orthogonalEdgeStyle;rounded=0;orthogonalLoop=1;jettySize=auto;html=1;endArrow=none;endFill=0;" edge="1" parent="1" source="JPcvBMSAecQYECdPvhLH-5">
          <mxGeometry relative="1" as="geometry">
            <mxPoint y="285" as="targetPoint" />
          </mxGeometry>
        </mxCell>
        <mxCell id="JPcvBMSAecQYECdPvhLH-52" style="edgeStyle=orthogonalEdgeStyle;rounded=0;orthogonalLoop=1;jettySize=auto;html=1;entryX=0;entryY=0.5;entryDx=0;entryDy=0;fontColor=#FFE6CC;fillColor=#f8cecc;strokeColor=#b85450;" edge="1" parent="1" source="JPcvBMSAecQYECdPvhLH-5" target="JPcvBMSAecQYECdPvhLH-32">
          <mxGeometry relative="1" as="geometry" />
        </mxCell>
        <mxCell id="JPcvBMSAecQYECdPvhLH-5" value="&lt;b&gt;compute_vol_evol()&lt;/b&gt;" style="rounded=0;whiteSpace=wrap;html=1;" vertex="1" parent="1">
          <mxGeometry x="20" y="310" width="230" height="30" as="geometry" />
        </mxCell>
        <mxCell id="JPcvBMSAecQYECdPvhLH-79" style="edgeStyle=orthogonalEdgeStyle;rounded=0;orthogonalLoop=1;jettySize=auto;html=1;entryX=0;entryY=0.5;entryDx=0;entryDy=0;fontColor=#FFE6CC;fillColor=#f8cecc;strokeColor=#b85450;" edge="1" parent="1" source="JPcvBMSAecQYECdPvhLH-6" target="JPcvBMSAecQYECdPvhLH-33">
          <mxGeometry relative="1" as="geometry" />
        </mxCell>
        <mxCell id="JPcvBMSAecQYECdPvhLH-6" value="&lt;b&gt;compute_marginal_vol_contrib()&lt;/b&gt;" style="rounded=0;whiteSpace=wrap;html=1;" vertex="1" parent="1">
          <mxGeometry x="20" y="390" width="230" height="30" as="geometry" />
        </mxCell>
        <mxCell id="JPcvBMSAecQYECdPvhLH-80" style="edgeStyle=orthogonalEdgeStyle;rounded=0;orthogonalLoop=1;jettySize=auto;html=1;fontColor=#FFE6CC;fillColor=#f8cecc;strokeColor=#b85450;" edge="1" parent="1" source="JPcvBMSAecQYECdPvhLH-7">
          <mxGeometry relative="1" as="geometry">
            <mxPoint x="410" y="444.9999999999998" as="targetPoint" />
          </mxGeometry>
        </mxCell>
        <mxCell id="JPcvBMSAecQYECdPvhLH-7" value="&lt;b&gt;compute_vol_contrib()&lt;/b&gt;" style="rounded=0;whiteSpace=wrap;html=1;" vertex="1" parent="1">
          <mxGeometry x="20" y="430" width="230" height="30" as="geometry" />
        </mxCell>
        <mxCell id="JPcvBMSAecQYECdPvhLH-66" style="edgeStyle=orthogonalEdgeStyle;rounded=0;orthogonalLoop=1;jettySize=auto;html=1;entryX=0;entryY=0.5;entryDx=0;entryDy=0;fontColor=#FFE6CC;fillColor=#f8cecc;strokeColor=#b85450;" edge="1" parent="1" source="JPcvBMSAecQYECdPvhLH-8" target="JPcvBMSAecQYECdPvhLH-35">
          <mxGeometry relative="1" as="geometry" />
        </mxCell>
        <mxCell id="JPcvBMSAecQYECdPvhLH-67" style="edgeStyle=orthogonalEdgeStyle;rounded=0;orthogonalLoop=1;jettySize=auto;html=1;entryX=0;entryY=0.5;entryDx=0;entryDy=0;fontColor=#FFE6CC;fillColor=#f8cecc;strokeColor=#b85450;" edge="1" parent="1" source="JPcvBMSAecQYECdPvhLH-8" target="JPcvBMSAecQYECdPvhLH-62">
          <mxGeometry relative="1" as="geometry" />
        </mxCell>
        <mxCell id="JPcvBMSAecQYECdPvhLH-68" style="edgeStyle=orthogonalEdgeStyle;rounded=0;orthogonalLoop=1;jettySize=auto;html=1;entryX=0;entryY=0.5;entryDx=0;entryDy=0;fontColor=#FFE6CC;fillColor=#f8cecc;strokeColor=#b85450;" edge="1" parent="1" source="JPcvBMSAecQYECdPvhLH-8" target="JPcvBMSAecQYECdPvhLH-61">
          <mxGeometry relative="1" as="geometry" />
        </mxCell>
        <mxCell id="JPcvBMSAecQYECdPvhLH-8" value="&lt;b&gt;update_var_cvar(T,alpha)&lt;/b&gt;" style="rounded=0;whiteSpace=wrap;html=1;" vertex="1" parent="1">
          <mxGeometry x="20" y="550" width="230" height="30" as="geometry" />
        </mxCell>
        <mxCell id="JPcvBMSAecQYECdPvhLH-70" style="edgeStyle=orthogonalEdgeStyle;rounded=0;orthogonalLoop=1;jettySize=auto;html=1;entryX=0;entryY=0.5;entryDx=0;entryDy=0;fontColor=#FFE6CC;fillColor=#f8cecc;strokeColor=#b85450;" edge="1" parent="1" source="JPcvBMSAecQYECdPvhLH-9" target="JPcvBMSAecQYECdPvhLH-69">
          <mxGeometry relative="1" as="geometry" />
        </mxCell>
        <mxCell id="JPcvBMSAecQYECdPvhLH-9" value="&lt;b&gt;compute_sharpe()&lt;/b&gt;" style="rounded=0;whiteSpace=wrap;html=1;" vertex="1" parent="1">
          <mxGeometry x="20" y="670" width="230" height="30" as="geometry" />
        </mxCell>
        <mxCell id="JPcvBMSAecQYECdPvhLH-71" style="edgeStyle=orthogonalEdgeStyle;rounded=0;orthogonalLoop=1;jettySize=auto;html=1;entryX=0;entryY=0.5;entryDx=0;entryDy=0;fontColor=#FFE6CC;fillColor=#f8cecc;strokeColor=#b85450;" edge="1" parent="1" source="JPcvBMSAecQYECdPvhLH-10" target="JPcvBMSAecQYECdPvhLH-37">
          <mxGeometry relative="1" as="geometry" />
        </mxCell>
        <mxCell id="JPcvBMSAecQYECdPvhLH-72" style="edgeStyle=orthogonalEdgeStyle;rounded=0;orthogonalLoop=1;jettySize=auto;html=1;entryX=0;entryY=0.5;entryDx=0;entryDy=0;fontColor=#FFE6CC;fillColor=#f8cecc;strokeColor=#b85450;" edge="1" parent="1" source="JPcvBMSAecQYECdPvhLH-10" target="JPcvBMSAecQYECdPvhLH-38">
          <mxGeometry relative="1" as="geometry">
            <Array as="points">
              <mxPoint x="330" y="725" />
              <mxPoint x="330" y="765" />
            </Array>
          </mxGeometry>
        </mxCell>
        <mxCell id="JPcvBMSAecQYECdPvhLH-81" style="edgeStyle=orthogonalEdgeStyle;rounded=0;orthogonalLoop=1;jettySize=auto;html=1;entryX=0;entryY=0.5;entryDx=0;entryDy=0;fontColor=#FFE6CC;fillColor=#f8cecc;strokeColor=#b85450;" edge="1" parent="1" source="JPcvBMSAecQYECdPvhLH-10" target="JPcvBMSAecQYECdPvhLH-39">
          <mxGeometry relative="1" as="geometry" />
        </mxCell>
        <mxCell id="JPcvBMSAecQYECdPvhLH-10" value="&lt;b&gt;compute_drawdown_evol()&lt;/b&gt;" style="rounded=0;whiteSpace=wrap;html=1;" vertex="1" parent="1">
          <mxGeometry x="20" y="710" width="230" height="30" as="geometry" />
        </mxCell>
        <mxCell id="JPcvBMSAecQYECdPvhLH-74" style="edgeStyle=orthogonalEdgeStyle;rounded=0;orthogonalLoop=1;jettySize=auto;html=1;fontColor=#FFE6CC;fillColor=#f8cecc;strokeColor=#b85450;" edge="1" parent="1" source="JPcvBMSAecQYECdPvhLH-11">
          <mxGeometry relative="1" as="geometry">
            <mxPoint x="410" y="845" as="targetPoint" />
          </mxGeometry>
        </mxCell>
        <mxCell id="JPcvBMSAecQYECdPvhLH-11" value="&lt;b&gt;compute_sensitivity()&lt;/b&gt;" style="rounded=0;whiteSpace=wrap;html=1;" vertex="1" parent="1">
          <mxGeometry x="20" y="830" width="230" height="30" as="geometry" />
        </mxCell>
        <mxCell id="JPcvBMSAecQYECdPvhLH-75" style="edgeStyle=orthogonalEdgeStyle;rounded=0;orthogonalLoop=1;jettySize=auto;html=1;fontColor=#FFE6CC;fillColor=#f8cecc;strokeColor=#b85450;" edge="1" parent="1" source="JPcvBMSAecQYECdPvhLH-12">
          <mxGeometry relative="1" as="geometry">
            <mxPoint x="410" y="885" as="targetPoint" />
          </mxGeometry>
        </mxCell>
        <mxCell id="JPcvBMSAecQYECdPvhLH-12" value="&lt;b&gt;compute_beta()&lt;/b&gt;" style="rounded=0;whiteSpace=wrap;html=1;" vertex="1" parent="1">
          <mxGeometry x="20" y="870" width="230" height="30" as="geometry" />
        </mxCell>
        <mxCell id="JPcvBMSAecQYECdPvhLH-76" style="edgeStyle=orthogonalEdgeStyle;rounded=0;orthogonalLoop=1;jettySize=auto;html=1;entryX=0;entryY=0.5;entryDx=0;entryDy=0;fontColor=#FFE6CC;fillColor=#f8cecc;strokeColor=#b85450;" edge="1" parent="1" source="JPcvBMSAecQYECdPvhLH-13" target="JPcvBMSAecQYECdPvhLH-42">
          <mxGeometry relative="1" as="geometry" />
        </mxCell>
        <mxCell id="JPcvBMSAecQYECdPvhLH-13" value="&lt;b&gt;compute_tre()&lt;/b&gt;" style="rounded=0;whiteSpace=wrap;html=1;" vertex="1" parent="1">
          <mxGeometry x="20" y="910" width="230" height="30" as="geometry" />
        </mxCell>
        <mxCell id="JPcvBMSAecQYECdPvhLH-77" style="edgeStyle=orthogonalEdgeStyle;rounded=0;orthogonalLoop=1;jettySize=auto;html=1;fontColor=#FFE6CC;fillColor=#f8cecc;strokeColor=#b85450;" edge="1" parent="1" source="JPcvBMSAecQYECdPvhLH-14">
          <mxGeometry relative="1" as="geometry">
            <mxPoint x="410" y="965" as="targetPoint" />
          </mxGeometry>
        </mxCell>
        <mxCell id="JPcvBMSAecQYECdPvhLH-14" value="&lt;b&gt;compute_risk_reward()&lt;/b&gt;" style="rounded=0;whiteSpace=wrap;html=1;" vertex="1" parent="1">
          <mxGeometry x="20" y="950" width="230" height="30" as="geometry" />
        </mxCell>
        <mxCell id="JPcvBMSAecQYECdPvhLH-47" style="edgeStyle=orthogonalEdgeStyle;rounded=0;orthogonalLoop=1;jettySize=auto;html=1;fontColor=#FFE6CC;fillColor=#f8cecc;strokeColor=#b85450;" edge="1" parent="1" source="JPcvBMSAecQYECdPvhLH-15" target="JPcvBMSAecQYECdPvhLH-45">
          <mxGeometry relative="1" as="geometry" />
        </mxCell>
        <mxCell id="JPcvBMSAecQYECdPvhLH-48" style="edgeStyle=orthogonalEdgeStyle;rounded=0;orthogonalLoop=1;jettySize=auto;html=1;entryX=0;entryY=0.5;entryDx=0;entryDy=0;fontColor=#FFE6CC;fillColor=#f8cecc;strokeColor=#b85450;" edge="1" parent="1" source="JPcvBMSAecQYECdPvhLH-15" target="JPcvBMSAecQYECdPvhLH-44">
          <mxGeometry relative="1" as="geometry" />
        </mxCell>
        <mxCell id="JPcvBMSAecQYECdPvhLH-49" style="edgeStyle=orthogonalEdgeStyle;rounded=0;orthogonalLoop=1;jettySize=auto;html=1;entryX=0;entryY=0.5;entryDx=0;entryDy=0;fontColor=#FFE6CC;fillColor=#f8cecc;strokeColor=#b85450;" edge="1" parent="1" source="JPcvBMSAecQYECdPvhLH-15" target="JPcvBMSAecQYECdPvhLH-46">
          <mxGeometry relative="1" as="geometry" />
        </mxCell>
        <mxCell id="JPcvBMSAecQYECdPvhLH-15" value="&lt;b&gt;compute_perf_flat()&lt;/b&gt;" style="rounded=0;whiteSpace=wrap;html=1;" vertex="1" parent="1">
          <mxGeometry x="20" y="1030" width="230" height="30" as="geometry" />
        </mxCell>
        <mxCell id="JPcvBMSAecQYECdPvhLH-50" style="edgeStyle=orthogonalEdgeStyle;rounded=0;orthogonalLoop=1;jettySize=auto;html=1;entryX=0;entryY=0.5;entryDx=0;entryDy=0;fontColor=#FFE6CC;fillColor=#f8cecc;strokeColor=#b85450;" edge="1" parent="1" source="JPcvBMSAecQYECdPvhLH-16" target="JPcvBMSAecQYECdPvhLH-29">
          <mxGeometry relative="1" as="geometry" />
        </mxCell>
        <mxCell id="JPcvBMSAecQYECdPvhLH-16" value="&lt;b&gt;compute_cov()&lt;/b&gt;" style="rounded=0;whiteSpace=wrap;html=1;" vertex="1" parent="1">
          <mxGeometry x="20" y="470" width="230" height="30" as="geometry" />
        </mxCell>
        <mxCell id="JPcvBMSAecQYECdPvhLH-106" style="edgeStyle=orthogonalEdgeStyle;rounded=0;orthogonalLoop=1;jettySize=auto;html=1;exitX=0.25;exitY=1;exitDx=0;exitDy=0;entryX=0.1;entryY=0.5;entryDx=0;entryDy=0;entryPerimeter=0;" edge="1" parent="1" source="JPcvBMSAecQYECdPvhLH-18" target="JPcvBMSAecQYECdPvhLH-88">
          <mxGeometry relative="1" as="geometry">
            <Array as="points">
              <mxPoint x="-130" y="-50" />
              <mxPoint x="-130" y="625" />
            </Array>
          </mxGeometry>
        </mxCell>
        <mxCell id="JPcvBMSAecQYECdPvhLH-18" value="&lt;b&gt;__init__(window_name, window, asset, T, alpha, risk_free_rate)&lt;/b&gt;" style="rounded=0;whiteSpace=wrap;html=1;" vertex="1" parent="1">
          <mxGeometry x="-200" y="-80" width="400" height="30" as="geometry" />
        </mxCell>
        <mxCell id="JPcvBMSAecQYECdPvhLH-24" value="Utilisent" style="text;html=1;align=center;verticalAlign=middle;whiteSpace=wrap;rounded=0;" vertex="1" parent="1">
          <mxGeometry x="-56" y="240" width="60" height="30" as="geometry" />
        </mxCell>
        <mxCell id="JPcvBMSAecQYECdPvhLH-26" value="returns_on_common_dates" style="rounded=1;whiteSpace=wrap;html=1;" vertex="1" parent="1">
          <mxGeometry x="410" y="170" width="160" height="30" as="geometry" />
        </mxCell>
        <mxCell id="JPcvBMSAecQYECdPvhLH-27" value="returns" style="rounded=1;whiteSpace=wrap;html=1;" vertex="1" parent="1">
          <mxGeometry x="410" y="210" width="160" height="30" as="geometry" />
        </mxCell>
        <mxCell id="JPcvBMSAecQYECdPvhLH-28" value="VL_exante" style="rounded=1;whiteSpace=wrap;html=1;" vertex="1" parent="1">
          <mxGeometry x="410" y="270" width="160" height="30" as="geometry" />
        </mxCell>
        <mxCell id="JPcvBMSAecQYECdPvhLH-29" value="cov" style="rounded=1;whiteSpace=wrap;html=1;" vertex="1" parent="1">
          <mxGeometry x="410" y="470" width="160" height="30" as="geometry" />
        </mxCell>
        <mxCell id="JPcvBMSAecQYECdPvhLH-30" value="cor" style="rounded=1;whiteSpace=wrap;html=1;" vertex="1" parent="1">
          <mxGeometry x="410" y="510" width="160" height="30" as="geometry" />
        </mxCell>
        <mxCell id="JPcvBMSAecQYECdPvhLH-31" value="vol" style="rounded=1;whiteSpace=wrap;html=1;" vertex="1" parent="1">
          <mxGeometry x="410" y="350" width="160" height="30" as="geometry" />
        </mxCell>
        <mxCell id="JPcvBMSAecQYECdPvhLH-32" value="vol_evol" style="rounded=1;whiteSpace=wrap;html=1;" vertex="1" parent="1">
          <mxGeometry x="410" y="310" width="160" height="30" as="geometry" />
        </mxCell>
        <mxCell id="JPcvBMSAecQYECdPvhLH-33" value="mcr" style="rounded=1;whiteSpace=wrap;html=1;" vertex="1" parent="1">
          <mxGeometry x="410" y="390" width="160" height="30" as="geometry" />
        </mxCell>
        <mxCell id="JPcvBMSAecQYECdPvhLH-34" value="vol_contrib" style="rounded=1;whiteSpace=wrap;html=1;" vertex="1" parent="1">
          <mxGeometry x="410" y="430" width="160" height="30" as="geometry" />
        </mxCell>
        <mxCell id="JPcvBMSAecQYECdPvhLH-35" value="T_returns" style="rounded=1;whiteSpace=wrap;html=1;" vertex="1" parent="1">
          <mxGeometry x="410" y="550" width="160" height="30" as="geometry" />
        </mxCell>
        <mxCell id="JPcvBMSAecQYECdPvhLH-37" value="drawdown_evol" style="rounded=1;whiteSpace=wrap;html=1;" vertex="1" parent="1">
          <mxGeometry x="410" y="710" width="160" height="30" as="geometry" />
        </mxCell>
        <mxCell id="JPcvBMSAecQYECdPvhLH-38" value="t2r" style="rounded=1;whiteSpace=wrap;html=1;" vertex="1" parent="1">
          <mxGeometry x="410" y="750" width="160" height="30" as="geometry" />
        </mxCell>
        <mxCell id="JPcvBMSAecQYECdPvhLH-39" value="mdd" style="rounded=1;whiteSpace=wrap;html=1;" vertex="1" parent="1">
          <mxGeometry x="410" y="790" width="160" height="30" as="geometry" />
        </mxCell>
        <mxCell id="JPcvBMSAecQYECdPvhLH-40" value="sensitivity" style="rounded=1;whiteSpace=wrap;html=1;" vertex="1" parent="1">
          <mxGeometry x="410" y="830" width="160" height="30" as="geometry" />
        </mxCell>
        <mxCell id="JPcvBMSAecQYECdPvhLH-41" value="beta" style="rounded=1;whiteSpace=wrap;html=1;" vertex="1" parent="1">
          <mxGeometry x="410" y="870" width="160" height="30" as="geometry" />
        </mxCell>
        <mxCell id="JPcvBMSAecQYECdPvhLH-42" value="tre" style="rounded=1;whiteSpace=wrap;html=1;" vertex="1" parent="1">
          <mxGeometry x="410" y="910" width="160" height="30" as="geometry" />
        </mxCell>
        <mxCell id="JPcvBMSAecQYECdPvhLH-43" value="risk_reward" style="rounded=1;whiteSpace=wrap;html=1;" vertex="1" parent="1">
          <mxGeometry x="410" y="950" width="160" height="30" as="geometry" />
        </mxCell>
        <mxCell id="JPcvBMSAecQYECdPvhLH-44" value="monthly_perf" style="rounded=1;whiteSpace=wrap;html=1;" vertex="1" parent="1">
          <mxGeometry x="410" y="990" width="160" height="30" as="geometry" />
        </mxCell>
        <mxCell id="JPcvBMSAecQYECdPvhLH-45" value="yearly_perf_flat" style="rounded=1;whiteSpace=wrap;html=1;" vertex="1" parent="1">
          <mxGeometry x="410" y="1030" width="160" height="30" as="geometry" />
        </mxCell>
        <mxCell id="JPcvBMSAecQYECdPvhLH-46" value="absolute_perf_flat" style="rounded=1;whiteSpace=wrap;html=1;" vertex="1" parent="1">
          <mxGeometry x="410" y="1070" width="160" height="30" as="geometry" />
        </mxCell>
        <mxCell id="JPcvBMSAecQYECdPvhLH-23" value="" style="edgeStyle=orthogonalEdgeStyle;rounded=0;orthogonalLoop=1;jettySize=auto;html=1;entryX=0;entryY=0.5;entryDx=0;entryDy=0;" edge="1" parent="1" source="JPcvBMSAecQYECdPvhLH-8" target="JPcvBMSAecQYECdPvhLH-3">
          <mxGeometry relative="1" as="geometry">
            <mxPoint x="-115" y="405" as="targetPoint" />
            <Array as="points">
              <mxPoint y="565" />
              <mxPoint y="205" />
            </Array>
          </mxGeometry>
        </mxCell>
        <mxCell id="JPcvBMSAecQYECdPvhLH-61" value="cvar" style="rounded=1;whiteSpace=wrap;html=1;" vertex="1" parent="1">
          <mxGeometry x="410" y="630" width="160" height="30" as="geometry" />
        </mxCell>
        <mxCell id="JPcvBMSAecQYECdPvhLH-62" value="var" style="rounded=1;whiteSpace=wrap;html=1;" vertex="1" parent="1">
          <mxGeometry x="410" y="590" width="160" height="30" as="geometry" />
        </mxCell>
        <mxCell id="JPcvBMSAecQYECdPvhLH-69" value="sharpe" style="rounded=1;whiteSpace=wrap;html=1;" vertex="1" parent="1">
          <mxGeometry x="410" y="670" width="160" height="30" as="geometry" />
        </mxCell>
        <mxCell id="JPcvBMSAecQYECdPvhLH-88" value="" style="shape=curlyBracket;whiteSpace=wrap;html=1;rounded=1;labelPosition=left;verticalLabelPosition=middle;align=right;verticalAlign=middle;" vertex="1" parent="1">
          <mxGeometry x="-70" y="190" width="20" height="870" as="geometry" />
        </mxCell>
        <mxCell id="JPcvBMSAecQYECdPvhLH-91" value="Appelle dans l&#39;ordre" style="text;html=1;align=center;verticalAlign=middle;whiteSpace=wrap;rounded=0;" vertex="1" parent="1">
          <mxGeometry x="-150" y="632" width="101" height="30" as="geometry" />
        </mxCell>
        <mxCell id="JPcvBMSAecQYECdPvhLH-94" value="window" style="rounded=1;whiteSpace=wrap;html=1;" vertex="1" parent="1">
          <mxGeometry x="410" y="-240" width="160" height="30" as="geometry" />
        </mxCell>
        <mxCell id="JPcvBMSAecQYECdPvhLH-95" value="window_name" style="rounded=1;whiteSpace=wrap;html=1;" vertex="1" parent="1">
          <mxGeometry x="410" y="-200" width="160" height="30" as="geometry" />
        </mxCell>
        <mxCell id="JPcvBMSAecQYECdPvhLH-96" value="asset" style="rounded=1;whiteSpace=wrap;html=1;" vertex="1" parent="1">
          <mxGeometry x="410" y="-280" width="160" height="30" as="geometry" />
        </mxCell>
        <mxCell id="JPcvBMSAecQYECdPvhLH-97" value="benchmark" style="rounded=1;whiteSpace=wrap;html=1;" vertex="1" parent="1">
          <mxGeometry x="410" y="-160" width="160" height="30" as="geometry" />
        </mxCell>
        <mxCell id="JPcvBMSAecQYECdPvhLH-98" value="prices_full_df" style="rounded=1;whiteSpace=wrap;html=1;" vertex="1" parent="1">
          <mxGeometry x="410" y="-120" width="160" height="30" as="geometry" />
        </mxCell>
        <mxCell id="JPcvBMSAecQYECdPvhLH-99" value="prices_df" style="rounded=1;whiteSpace=wrap;html=1;" vertex="1" parent="1">
          <mxGeometry x="410" y="-80" width="160" height="30" as="geometry" />
        </mxCell>
        <mxCell id="JPcvBMSAecQYECdPvhLH-100" value="prices_on_commondates" style="rounded=1;whiteSpace=wrap;html=1;" vertex="1" parent="1">
          <mxGeometry x="410" y="-40" width="160" height="30" as="geometry" />
        </mxCell>
        <mxCell id="JPcvBMSAecQYECdPvhLH-101" value="dates" style="rounded=1;whiteSpace=wrap;html=1;" vertex="1" parent="1">
          <mxGeometry x="410" width="160" height="30" as="geometry" />
        </mxCell>
        <mxCell id="JPcvBMSAecQYECdPvhLH-102" value="weights" style="rounded=1;whiteSpace=wrap;html=1;" vertex="1" parent="1">
          <mxGeometry x="410" y="40" width="160" height="30" as="geometry" />
        </mxCell>
        <mxCell id="JPcvBMSAecQYECdPvhLH-103" value="id_instruments" style="rounded=1;whiteSpace=wrap;html=1;" vertex="1" parent="1">
          <mxGeometry x="410" y="80" width="160" height="30" as="geometry" />
        </mxCell>
        <mxCell id="JPcvBMSAecQYECdPvhLH-104" value="inst_count" style="rounded=1;whiteSpace=wrap;html=1;" vertex="1" parent="1">
          <mxGeometry x="410" y="120" width="160" height="30" as="geometry" />
        </mxCell>
        <mxCell id="JPcvBMSAecQYECdPvhLH-107" value="" style="shape=curlyBracket;whiteSpace=wrap;html=1;rounded=1;labelPosition=left;verticalLabelPosition=middle;align=right;verticalAlign=middle;" vertex="1" parent="1">
          <mxGeometry x="360" y="-280" width="20" height="430" as="geometry" />
        </mxCell>
        <mxCell id="JPcvBMSAecQYECdPvhLH-108" style="edgeStyle=orthogonalEdgeStyle;rounded=0;orthogonalLoop=1;jettySize=auto;html=1;entryX=0.1;entryY=0.5;entryDx=0;entryDy=0;entryPerimeter=0;" edge="1" parent="1" source="JPcvBMSAecQYECdPvhLH-18" target="JPcvBMSAecQYECdPvhLH-107">
          <mxGeometry relative="1" as="geometry" />
        </mxCell>
        <mxCell id="JPcvBMSAecQYECdPvhLH-110" value="Définit" style="text;html=1;align=center;verticalAlign=middle;whiteSpace=wrap;rounded=0;" vertex="1" parent="1">
          <mxGeometry x="250" y="-90" width="60" height="30" as="geometry" />
        </mxCell>
        <mxCell id="JPcvBMSAecQYECdPvhLH-111" value="&lt;h1 style=&quot;margin-top: 0px;&quot;&gt;&lt;span style=&quot;background-color: transparent; color: light-dark(rgb(0, 0, 0), rgb(255, 255, 255));&quot;&gt;[Code] Metrics&amp;nbsp;&lt;/span&gt;&lt;/h1&gt;&lt;h1 style=&quot;margin-top: 0px;&quot;&gt;&lt;span style=&quot;background-color: transparent; color: light-dark(rgb(0, 0, 0), rgb(255, 255, 255)); font-size: 12px; font-weight: normal;&quot;&gt;Lorem ipsum dolor sit amet, consectetur adipisicing elit, sed do eiusmod tempor incididunt ut labore et dolore magna aliqua.&lt;/span&gt;&lt;/h1&gt;" style="text;html=1;whiteSpace=wrap;overflow=hidden;rounded=0;" vertex="1" parent="1">
          <mxGeometry x="-200" y="-280" width="390" height="120" as="geometry" />
        </mxCell>
      </root>
    </mxGraphModel>
  </diagram>
</mxfile>
